<svg xmlns="http://www.w3.org/2000/svg" width="240" height="60" viewBox="0 0 240 60" fill="none">
  <rect x="10" y="10" width="40" height="40" rx="8" fill="#2563EB"/>
  <path d="M20 20H40V24H20V20Z" fill="white"/>
  <path d="M20 28H40V32H20V28Z" fill="white"/>
  <path d="M20 36H40V40H20V36Z" fill="white"/>
  <path d="M30 18V42" stroke="white" stroke-width="2" stroke-linecap="round"/>
  <path d="M65 25H68V40H65V25Z" fill="#1E293B"/>
  <path d="M65 18H68V22H65V18Z" fill="#2563EB"/>
  <path d="M74 25H77L82 37L87 25H90V40H87V30L83 40H81L77 30V40H74V25Z" fill="#1E293B"/>
  <path d="M97 26C93.7 26 91 28.7 91 32C91 35.3 93.7 38 97 38C98.3 38 99.5 37.6 100.5 36.9L99 34.7C98.4 35.1 97.7 35.3 97 35.3C95.3 35.3 94 33.9 94 32C94 30.1 95.3 28.7 97 28.7C97.7 28.7 98.4 28.9 99 29.3L100.5 27.1C99.5 26.4 98.3 26 97 26Z" fill="#1E293B"/>
  <path d="M109 25V40H106V34H101V40H98V25H101V31H106V25H109Z" fill="#1E293B"/>
  <path d="M111 29H114V40H111V29Z" fill="#1E293B"/>
  <path d="M111 25H114V28H111V25Z" fill="#2563EB"/>
  <path d="M125 32.5C125 30.6 123.4 29 121.5 29C119.6 29 118 30.6 118 32.5V36.5C118 38.4 119.6 40 121.5 40C123.4 40 125 38.4 125 36.5V32.5ZM122 36.5C122 36.8 121.8 37 121.5 37C121.2 37 121 36.8 121 36.5V32.5C121 32.2 121.2 32 121.5 32C121.8 32 122 32.2 122 32.5V36.5Z" fill="#1E293B"/>
  <path d="M133 29V40H130V39C129.4 39.7 128.5 40 127.5 40C126.1 40 125 38.9 125 37.5V29H128V37C128 37.6 128.4 38 129 38C129.6 38 130 37.6 130 37V29H133Z" fill="#1E293B"/>
  <path d="M140 40V37C140 36.4 139.6 36 139 36H137V40H134V25H137V33H138L140 29H143L140.5 33.7C141.9 34.4 143 35.8 143 37V40H140Z" fill="#1E293B"/>
  <path d="M150 29H147V37C147 37.6 147.4 38 148 38C148.6 38 149 37.6 149 37V29H152V37.5C152 38.9 150.9 40 149.5 40C148.5 40 147.6 39.7 147 39V40H144V29H144.5H145H150Z" fill="#1E293B"/>
  <path d="M154 29H161V31H157V33H161V35H157V38H161V40H154V29Z" fill="#1E293B"/>
</svg>